<svg id="svg" version="1.1" xmlns="http://www.w3.org/2000/svg" xmlns:xlink="http://www.w3.org/1999/xlink" width="400" height="400" viewBox="0, 0, 400,400"><g id="svgg"><path id="path0" d="M67.200 134.268 C 67.200 134.704,67.659 135.492,68.221 136.019 C 68.782 136.547,69.601 137.703,70.041 138.589 C 71.073 140.670,72.083 142.461,73.021 143.872 C 73.433 144.492,74.059 145.540,74.413 146.200 C 74.766 146.860,75.425 148.030,75.877 148.800 C 76.329 149.570,77.732 152.000,78.995 154.200 C 82.116 159.638,82.503 160.298,83.925 162.600 C 84.604 163.700,85.533 165.320,85.989 166.200 C 86.445 167.080,87.309 168.624,87.909 169.631 C 88.509 170.637,89.900 173.033,91.000 174.954 C 92.100 176.875,93.450 179.215,94.000 180.154 C 95.148 182.114,98.705 188.299,99.612 189.912 C 99.948 190.510,101.027 192.350,102.010 194.000 C 102.993 195.650,104.009 197.483,104.268 198.074 C 105.331 200.495,103.716 200.398,143.280 200.423 C 176.668 200.444,184.094 200.631,181.754 201.391 C 181.220 201.564,180.733 202.245,180.437 203.233 C 180.179 204.095,179.804 204.800,179.603 204.800 C 179.402 204.800,178.868 205.565,178.417 206.500 C 177.966 207.435,177.067 209.100,176.420 210.200 C 175.773 211.300,175.005 212.650,174.713 213.200 C 174.420 213.750,173.556 215.252,172.791 216.537 C 170.295 220.733,169.254 222.577,168.580 224.000 C 168.215 224.770,167.575 225.722,167.158 226.116 C 166.741 226.509,166.400 227.162,166.400 227.567 C 166.400 227.971,166.128 228.528,165.795 228.804 C 165.463 229.080,164.843 230.092,164.418 231.053 C 163.993 232.014,163.477 232.800,163.272 232.800 C 163.068 232.800,162.793 233.334,162.663 233.988 C 162.532 234.641,162.077 235.523,161.652 235.948 C 161.227 236.373,160.751 237.144,160.594 237.661 C 160.437 238.177,159.986 238.960,159.592 239.400 C 159.199 239.840,158.577 240.830,158.211 241.600 C 156.896 244.364,155.728 246.475,155.367 246.735 C 155.165 246.881,154.674 247.630,154.276 248.400 C 153.878 249.170,153.031 250.700,152.394 251.800 C 151.757 252.900,150.938 254.430,150.575 255.200 C 150.211 255.970,149.663 256.744,149.357 256.920 C 149.051 257.096,148.800 257.476,148.800 257.764 C 148.800 258.052,148.369 258.924,147.842 259.701 C 147.315 260.477,146.640 261.785,146.343 262.607 C 146.046 263.428,145.577 264.187,145.301 264.293 C 145.026 264.399,144.800 264.736,144.800 265.043 C 144.800 265.515,150.301 265.600,180.838 265.600 C 221.220 265.600,218.277 265.378,219.971 268.555 C 220.892 270.283,221.720 271.736,225.000 277.389 C 228.098 282.728,229.112 284.516,229.654 285.600 C 229.930 286.150,230.374 286.870,230.641 287.200 C 230.908 287.530,231.618 288.700,232.217 289.800 C 234.211 293.458,234.847 294.587,235.827 296.200 C 236.361 297.080,237.163 298.558,237.610 299.483 C 238.057 300.409,238.577 301.262,238.765 301.378 C 238.953 301.495,239.493 302.357,239.965 303.295 C 240.437 304.233,241.348 305.810,241.990 306.800 C 242.632 307.790,243.532 309.320,243.990 310.200 C 244.448 311.080,245.247 312.520,245.767 313.400 C 246.667 314.924,247.363 316.130,249.889 320.541 C 250.500 321.609,251.450 323.255,252.000 324.199 C 254.401 328.320,255.600 330.847,255.600 331.789 C 255.600 332.421,255.825 332.800,256.200 332.800 C 256.530 332.800,256.800 332.466,256.800 332.057 C 256.800 331.282,258.732 327.379,260.986 323.603 C 261.708 322.391,263.231 319.780,264.369 317.800 C 265.507 315.820,266.611 313.930,266.822 313.600 C 267.032 313.270,267.519 312.370,267.902 311.600 C 268.286 310.830,268.915 309.851,269.300 309.425 C 269.685 308.998,270.000 308.398,270.000 308.090 C 270.000 307.782,270.501 306.781,271.114 305.865 C 272.740 303.435,273.150 302.743,273.802 301.327 C 274.124 300.627,274.550 299.955,274.747 299.832 C 274.945 299.710,275.502 298.843,275.985 297.905 C 276.469 296.967,277.383 295.300,278.017 294.200 C 278.652 293.100,279.634 291.390,280.200 290.400 C 280.766 289.410,281.665 287.880,282.197 287.000 C 282.730 286.120,283.537 284.680,283.991 283.800 C 284.445 282.920,285.796 280.580,286.995 278.600 C 288.193 276.620,289.544 274.280,289.996 273.400 C 290.448 272.520,291.415 270.797,292.145 269.572 C 294.011 266.437,294.208 265.135,292.991 263.992 C 292.459 263.492,291.824 262.479,291.581 261.741 C 291.337 261.004,290.990 260.400,290.809 260.400 C 290.627 260.400,290.146 259.591,289.740 258.601 C 289.333 257.612,288.873 256.802,288.719 256.801 C 288.564 256.801,288.060 256.035,287.599 255.100 C 286.545 252.964,285.344 250.780,284.792 250.000 C 284.130 249.063,282.540 246.360,281.616 244.600 C 281.153 243.720,280.334 242.280,279.796 241.400 C 279.257 240.520,278.505 239.170,278.124 238.400 C 277.743 237.630,277.154 236.667,276.816 236.260 C 276.477 235.853,275.840 234.821,275.400 233.966 C 274.960 233.112,273.700 230.867,272.600 228.977 C 269.358 223.409,268.488 221.879,267.724 220.400 C 267.326 219.630,266.889 218.910,266.754 218.800 C 266.618 218.690,266.078 217.805,265.554 216.833 C 265.029 215.862,264.115 214.242,263.522 213.233 C 262.928 212.225,262.150 210.789,261.792 210.042 C 261.434 209.295,260.895 208.438,260.595 208.138 C 260.294 207.837,259.822 206.963,259.544 206.196 C 259.266 205.428,258.909 204.800,258.749 204.800 C 258.589 204.800,258.012 203.825,257.467 202.634 C 255.961 199.345,258.980 199.581,217.502 199.505 C 110.010 199.306,106.800 199.274,106.800 198.386 C 106.800 197.895,106.410 197.432,105.800 197.200 C 104.993 196.893,104.800 196.546,104.800 195.401 C 104.800 194.276,104.593 193.889,103.800 193.527 C 103.137 193.225,102.800 192.748,102.800 192.109 C 102.800 190.825,102.110 189.600,101.386 189.600 C 101.005 189.600,100.800 189.191,100.800 188.429 C 100.800 187.667,100.462 186.992,99.833 186.498 C 99.301 186.079,98.806 185.211,98.733 184.569 C 98.636 183.712,98.360 183.366,97.700 183.272 C 96.940 183.164,96.800 182.898,96.800 181.564 C 96.800 180.266,96.621 179.901,95.800 179.527 C 95.084 179.201,94.800 178.757,94.800 177.964 C 94.800 176.884,93.915 175.600,93.171 175.600 C 92.967 175.600,92.800 175.163,92.800 174.629 C 92.800 174.070,92.376 173.325,91.800 172.871 C 91.119 172.336,90.800 171.691,90.800 170.850 C 90.800 169.867,90.597 169.564,89.800 169.364 C 89.001 169.164,88.799 168.861,88.794 167.857 C 88.787 166.406,88.481 165.845,87.500 165.483 C 87.081 165.329,86.800 164.811,86.800 164.194 C 86.800 163.627,86.350 162.714,85.800 162.164 C 85.250 161.614,84.800 160.833,84.800 160.428 C 84.800 160.023,84.362 159.405,83.826 159.054 C 83.190 158.637,82.808 157.961,82.726 157.108 C 82.639 156.208,82.319 155.677,81.700 155.405 C 81.033 155.113,80.800 154.675,80.800 153.714 C 80.800 152.773,80.526 152.239,79.800 151.763 C 79.232 151.391,78.800 150.726,78.800 150.224 C 78.800 149.737,78.350 148.917,77.800 148.400 C 77.250 147.883,76.800 147.037,76.800 146.520 C 76.800 145.886,76.475 145.457,75.800 145.200 C 74.993 144.893,74.800 144.546,74.800 143.401 C 74.800 142.276,74.593 141.889,73.800 141.527 C 73.137 141.225,72.800 140.748,72.800 140.109 C 72.800 138.844,72.113 137.600,71.414 137.600 C 71.107 137.600,70.798 137.200,70.728 136.710 C 70.658 136.221,70.196 135.620,69.703 135.375 C 69.209 135.129,68.444 134.602,68.003 134.202 C 67.225 133.498,67.200 133.500,67.200 134.268 " stroke="none" fill="#279eb1" fill-rule="evenodd"></path><path id="path1" d="M103.200 68.200 C 103.200 68.750,103.033 69.200,102.829 69.200 C 102.022 69.200,101.200 70.527,101.200 71.829 C 101.200 73.025,101.072 73.200,100.200 73.200 C 99.267 73.200,99.200 73.333,99.200 75.200 C 99.200 77.067,99.133 77.200,98.200 77.200 C 97.328 77.200,97.200 77.375,97.200 78.571 C 97.200 79.557,96.919 80.163,96.200 80.729 C 95.650 81.161,95.200 81.852,95.200 82.263 C 95.200 82.674,94.795 83.188,94.300 83.405 C 93.605 83.710,93.372 84.187,93.277 85.500 C 93.168 87.002,93.040 87.200,92.177 87.200 C 91.271 87.200,91.200 87.346,91.200 89.200 C 91.200 91.067,91.133 91.200,90.200 91.200 C 89.405 91.200,89.200 91.401,89.200 92.182 C 89.200 92.722,88.750 93.614,88.200 94.164 C 87.650 94.714,87.200 95.609,87.200 96.154 C 87.200 96.876,86.957 97.179,86.300 97.272 C 85.532 97.381,85.382 97.679,85.278 99.300 C 85.168 101.015,85.061 101.200,84.178 101.200 C 83.271 101.200,83.200 101.345,83.200 103.200 C 83.200 105.067,83.133 105.200,82.200 105.200 C 81.446 105.200,81.200 105.410,81.200 106.054 C 81.200 106.524,80.750 107.325,80.200 107.835 C 79.565 108.424,79.200 109.196,79.200 109.953 C 79.200 110.884,79.003 111.172,78.300 111.272 C 77.532 111.381,77.382 111.679,77.278 113.300 C 77.168 115.015,77.061 115.200,76.178 115.200 C 75.271 115.200,75.200 115.345,75.200 117.200 C 75.200 119.067,75.133 119.200,74.200 119.200 C 73.428 119.200,73.200 119.406,73.200 120.105 C 73.200 120.660,72.852 121.163,72.300 121.405 C 71.605 121.710,71.372 122.187,71.277 123.500 C 71.168 125.002,71.040 125.200,70.177 125.200 C 69.271 125.200,69.200 125.346,69.200 127.200 C 69.200 129.067,69.133 129.200,68.200 129.200 C 67.331 129.200,67.200 129.377,67.200 130.551 C 67.200 131.294,66.926 132.130,66.590 132.408 C 65.437 133.365,66.581 133.401,104.914 133.600 L 143.362 133.800 144.498 135.400 C 145.123 136.280,145.992 137.720,146.430 138.600 C 146.868 139.480,148.208 141.820,149.408 143.800 C 150.608 145.780,151.883 148.030,152.240 148.800 C 152.597 149.570,153.020 150.290,153.179 150.400 C 153.437 150.578,155.989 155.008,158.200 159.114 C 158.640 159.931,159.111 160.690,159.246 160.800 C 159.382 160.910,159.922 161.783,160.446 162.740 C 160.971 163.697,161.884 165.317,162.476 166.340 C 163.068 167.363,163.878 168.830,164.276 169.600 C 164.674 170.370,165.111 171.090,165.246 171.200 C 165.382 171.310,165.922 172.195,166.446 173.167 C 166.971 174.138,167.885 175.758,168.478 176.767 C 169.072 177.775,169.857 179.230,170.223 180.000 C 170.590 180.770,171.026 181.490,171.191 181.600 C 171.357 181.710,171.922 182.595,172.446 183.567 C 172.971 184.538,173.885 186.158,174.478 187.167 C 175.072 188.175,175.857 189.630,176.223 190.400 C 176.590 191.170,177.026 191.890,177.191 192.000 C 177.471 192.185,178.051 193.173,180.247 197.201 L 181.094 198.754 182.084 197.677 C 182.628 197.085,184.841 193.540,187.001 189.800 C 194.593 176.655,196.789 172.844,197.531 171.528 C 199.658 167.759,208.209 152.937,211.797 146.800 C 214.048 142.950,216.589 138.456,217.445 136.814 C 218.300 135.172,219.208 133.642,219.463 133.414 C 220.422 132.555,220.520 130.482,219.627 129.924 C 219.116 129.605,218.800 128.986,218.800 128.304 C 218.800 127.393,218.625 127.200,217.800 127.200 C 216.867 127.200,216.800 127.067,216.800 125.200 C 216.800 123.345,216.729 123.200,215.822 123.200 C 214.939 123.200,214.832 123.015,214.722 121.300 C 214.618 119.679,214.468 119.381,213.700 119.272 C 213.103 119.187,212.800 118.870,212.800 118.330 C 212.800 117.882,212.350 117.161,211.800 116.729 C 211.081 116.163,210.800 115.557,210.800 114.571 C 210.800 113.375,210.672 113.200,209.800 113.200 C 208.867 113.200,208.800 113.067,208.800 111.200 C 208.800 109.346,208.729 109.200,207.823 109.200 C 206.960 109.200,206.832 109.002,206.723 107.500 C 206.628 106.187,206.395 105.710,205.700 105.405 C 205.148 105.163,204.800 104.660,204.800 104.105 C 204.800 103.406,204.572 103.200,203.800 103.200 C 202.867 103.200,202.800 103.067,202.800 101.200 C 202.800 99.345,202.729 99.200,201.822 99.200 C 200.939 99.200,200.832 99.015,200.722 97.300 C 200.618 95.679,200.468 95.381,199.700 95.272 C 198.997 95.172,198.800 94.884,198.800 93.953 C 198.800 93.196,198.435 92.424,197.800 91.835 C 197.250 91.325,196.800 90.524,196.800 90.054 C 196.800 89.410,196.554 89.200,195.800 89.200 C 194.867 89.200,194.800 89.067,194.800 87.200 C 194.800 85.345,194.729 85.200,193.822 85.200 C 192.939 85.200,192.832 85.015,192.722 83.300 C 192.618 81.679,192.468 81.381,191.700 81.272 C 191.043 81.179,190.800 80.876,190.800 80.154 C 190.800 79.609,190.350 78.714,189.800 78.164 C 189.250 77.614,188.800 76.722,188.800 76.182 C 188.800 75.401,188.595 75.200,187.800 75.200 C 186.867 75.200,186.800 75.067,186.800 73.200 C 186.800 71.333,186.733 71.200,185.800 71.200 C 184.909 71.200,184.800 71.035,184.800 69.680 C 184.800 67.032,187.589 67.200,143.520 67.200 L 103.200 67.200 103.200 68.200 M297.900 135.933 C 298.698 136.769,299.009 136.721,298.662 135.817 C 298.532 135.478,298.149 135.200,297.813 135.200 C 297.294 135.200,297.308 135.313,297.900 135.933 M303.200 146.400 C 303.200 146.938,303.467 147.200,304.014 147.200 C 304.704 147.200,304.763 147.078,304.400 146.400 C 304.165 145.960,303.798 145.600,303.586 145.600 C 303.374 145.600,303.200 145.960,303.200 146.400 M305.854 149.506 C 306.103 149.668,306.397 150.160,306.507 150.600 C 306.661 151.213,306.718 151.143,306.754 150.300 C 306.787 149.499,306.610 149.202,306.100 149.206 C 305.656 149.210,305.566 149.320,305.854 149.506 M310.800 159.426 C 310.800 160.068,311.702 161.200,312.214 161.200 C 312.922 161.200,312.982 160.342,312.320 159.680 C 311.830 159.190,310.800 159.018,310.800 159.426 M319.603 174.003 C 320.606 174.872,321.038 174.797,320.662 173.817 C 320.532 173.478,320.032 173.200,319.551 173.200 L 318.678 173.200 319.603 174.003 M327.823 187.767 C 328.661 188.380,329.040 188.313,328.616 187.627 C 328.471 187.392,328.059 187.200,327.700 187.200 C 327.154 187.200,327.174 187.293,327.823 187.767 M338.800 208.600 C 338.800 208.930,339.092 209.200,339.449 209.200 C 339.980 209.200,340.008 209.091,339.600 208.600 C 339.326 208.270,339.034 208.000,338.951 208.000 C 338.868 208.000,338.800 208.270,338.800 208.600 M341.285 212.078 C 341.988 213.136,342.800 213.477,342.800 212.713 C 342.800 211.996,341.996 211.200,341.271 211.200 C 340.784 211.200,340.786 211.326,341.285 212.078 M346.862 222.209 C 346.938 222.594,347.429 223.068,347.953 223.262 C 348.866 223.599,348.881 223.576,348.319 222.729 C 347.564 221.592,346.678 221.276,346.862 222.209 M349.500 226.078 C 350.425 227.003,351.062 226.860,350.662 225.817 C 350.532 225.478,350.019 225.200,349.524 225.200 L 348.622 225.200 349.500 226.078 M354.806 235.430 C 354.803 235.667,355.250 236.283,355.800 236.800 C 356.350 237.317,356.800 237.528,356.800 237.270 C 356.800 237.011,356.620 236.800,356.400 236.800 C 356.180 236.800,356.045 236.665,356.100 236.500 C 356.155 236.335,356.040 236.170,355.845 236.134 C 355.649 236.098,355.337 235.828,355.151 235.534 C 354.965 235.240,354.809 235.194,354.806 235.430 M357.705 239.876 C 358.077 240.248,358.493 240.440,358.631 240.303 C 359.024 239.909,358.420 239.200,357.691 239.200 C 357.080 239.200,357.081 239.253,357.705 239.876 M362.800 249.426 C 362.800 250.068,363.702 251.200,364.214 251.200 C 364.922 251.200,364.982 250.342,364.320 249.680 C 363.830 249.190,362.800 249.018,362.800 249.426 M365.854 253.506 C 366.103 253.668,366.397 254.160,366.507 254.600 C 366.661 255.213,366.718 255.143,366.754 254.300 C 366.787 253.499,366.610 253.202,366.100 253.206 C 365.656 253.210,365.566 253.320,365.854 253.506 M368.800 260.600 C 368.800 260.930,369.092 261.200,369.449 261.200 C 369.980 261.200,370.008 261.091,369.600 260.600 C 369.326 260.270,369.034 260.000,368.951 260.000 C 368.868 260.000,368.800 260.270,368.800 260.600 M371.525 264.016 C 372.537 264.959,372.543 264.986,371.961 266.073 C 371.615 266.720,371.636 266.855,372.061 266.715 C 373.396 266.277,372.708 263.200,371.276 263.200 C 370.788 263.200,370.844 263.381,371.525 264.016 M366.432 277.100 C 366.414 277.375,366.265 277.555,366.100 277.500 C 365.935 277.445,365.770 277.560,365.734 277.755 C 365.698 277.951,365.428 278.263,365.134 278.449 C 364.716 278.714,364.741 278.789,365.251 278.794 C 366.080 278.802,366.939 277.784,366.669 277.113 C 366.510 276.717,366.456 276.714,366.432 277.100 M359.784 288.027 C 359.639 288.261,359.616 288.549,359.733 288.667 C 360.020 288.953,360.800 288.448,360.800 287.976 C 360.800 287.465,360.109 287.499,359.784 288.027 M357.500 291.633 C 356.352 292.890,356.963 293.380,358.171 292.171 C 358.831 291.512,359.011 290.777,358.500 290.833 C 358.335 290.852,357.885 291.212,357.500 291.633 M349.700 304.812 C 349.205 305.011,348.800 305.465,348.800 305.820 C 348.800 306.665,349.579 306.386,350.315 305.278 C 350.962 304.303,350.964 304.304,349.700 304.812 M343.398 315.602 C 342.558 316.530,342.915 317.175,343.919 316.543 C 344.663 316.075,345.081 314.800,344.491 314.800 C 344.289 314.800,343.797 315.161,343.398 315.602 M340.800 319.449 C 340.800 319.980,340.909 320.008,341.400 319.600 C 341.730 319.326,342.000 319.034,342.000 318.951 C 342.000 318.868,341.730 318.800,341.400 318.800 C 341.070 318.800,340.800 319.092,340.800 319.449 M335.280 329.280 C 334.644 329.916,334.668 330.800,335.320 330.800 C 335.606 330.800,336.056 330.584,336.320 330.320 C 336.956 329.684,336.932 328.800,336.280 328.800 C 335.994 328.800,335.544 329.016,335.280 329.280 " stroke="none" fill="#59b13a" fill-rule="evenodd"></path><path id="path2" d="M220.267 131.467 C 220.120 131.613,220.000 132.054,220.000 132.447 C 220.000 132.839,219.775 133.305,219.500 133.481 C 219.225 133.657,218.300 135.151,217.445 136.801 C 216.589 138.450,214.048 142.950,211.797 146.800 C 208.209 152.937,199.658 167.759,197.531 171.528 C 196.789 172.844,194.593 176.655,187.001 189.800 C 184.841 193.540,182.628 197.085,182.084 197.677 L 181.094 198.754 180.247 197.201 C 178.051 193.173,177.471 192.185,177.191 192.000 C 177.026 191.890,176.590 191.170,176.223 190.400 C 175.857 189.630,175.072 188.175,174.478 187.167 C 173.885 186.158,172.971 184.538,172.446 183.567 C 171.922 182.595,171.357 181.710,171.191 181.600 C 171.026 181.490,170.590 180.770,170.223 180.000 C 169.857 179.230,169.072 177.775,168.478 176.767 C 167.885 175.758,166.971 174.138,166.446 173.167 C 165.922 172.195,165.382 171.310,165.246 171.200 C 165.111 171.090,164.674 170.370,164.276 169.600 C 163.878 168.830,163.068 167.363,162.476 166.340 C 161.884 165.317,160.971 163.697,160.446 162.740 C 159.922 161.783,159.382 160.910,159.246 160.800 C 159.111 160.690,158.640 159.931,158.200 159.114 C 155.989 155.008,153.437 150.578,153.179 150.400 C 153.020 150.290,152.597 149.570,152.240 148.800 C 151.883 148.030,150.607 145.780,149.405 143.800 C 148.203 141.820,146.949 139.629,146.618 138.932 C 145.754 137.113,143.580 133.966,143.050 133.770 C 142.238 133.468,67.664 133.393,68.138 133.694 C 68.392 133.856,85.070 134.003,105.200 134.022 C 125.330 134.041,142.102 134.179,142.472 134.328 C 143.171 134.611,144.630 136.587,146.012 139.123 C 146.455 139.935,147.355 141.500,148.012 142.600 C 148.669 143.700,149.483 145.140,149.820 145.800 C 150.157 146.460,151.501 148.800,152.805 151.000 C 154.110 153.200,156.038 156.494,157.089 158.320 C 158.140 160.145,159.404 162.305,159.899 163.120 C 160.393 163.934,161.163 165.358,161.610 166.283 C 162.057 167.209,162.593 168.072,162.800 168.200 C 163.007 168.328,163.547 169.191,164.000 170.117 C 164.452 171.042,165.247 172.520,165.767 173.400 C 166.752 175.067,168.061 177.339,169.800 180.400 C 170.363 181.390,171.268 182.965,171.811 183.900 C 172.355 184.835,173.245 186.365,173.789 187.300 C 174.332 188.235,175.237 189.810,175.800 190.800 C 176.363 191.790,177.244 193.320,177.759 194.200 C 178.273 195.080,179.138 196.610,179.679 197.600 L 180.664 199.400 218.432 199.605 C 239.204 199.718,256.255 199.853,256.322 199.905 C 256.389 199.957,256.896 200.987,257.448 202.192 C 258.000 203.398,258.615 204.486,258.814 204.609 C 259.014 204.732,259.548 205.591,260.001 206.517 C 260.924 208.402,262.363 211.004,263.807 213.400 C 264.337 214.280,265.234 215.810,265.800 216.800 C 266.366 217.790,267.227 219.265,267.714 220.078 C 269.238 222.621,271.220 226.098,272.686 228.800 C 273.463 230.230,274.325 231.670,274.602 232.000 C 274.880 232.330,275.498 233.320,275.977 234.200 C 276.455 235.080,277.471 236.880,278.233 238.200 C 278.996 239.520,279.813 241.095,280.049 241.700 C 280.285 242.305,280.621 242.800,280.796 242.800 C 280.970 242.800,281.395 243.505,281.740 244.366 C 282.084 245.227,282.549 246.045,282.772 246.183 C 282.995 246.320,283.548 247.191,284.001 248.117 C 284.454 249.042,285.269 250.520,285.811 251.400 C 286.354 252.280,287.163 253.758,287.610 254.683 C 288.057 255.609,288.600 256.477,288.817 256.611 C 289.035 256.745,289.480 257.427,289.807 258.127 C 290.728 260.098,292.110 262.511,293.100 263.880 C 294.181 265.373,294.244 266.684,293.300 267.990 C 292.915 268.522,291.840 270.317,290.911 271.979 C 288.762 275.822,287.402 278.183,286.175 280.200 C 285.640 281.080,284.837 282.558,284.390 283.483 C 283.943 284.409,283.423 285.262,283.235 285.378 C 283.047 285.495,282.501 286.357,282.022 287.295 C 281.543 288.233,280.713 289.720,280.177 290.600 C 279.641 291.480,278.837 292.958,278.390 293.883 C 277.943 294.809,277.423 295.662,277.235 295.778 C 277.047 295.895,276.506 296.757,276.033 297.695 C 275.561 298.633,274.736 300.120,274.200 301.000 C 273.663 301.880,272.854 303.358,272.401 304.283 C 271.948 305.209,271.407 306.072,271.200 306.200 C 270.993 306.328,270.454 307.191,270.002 308.117 C 269.551 309.042,268.691 310.624,268.091 311.631 C 267.491 312.637,266.138 314.977,265.084 316.831 C 262.645 321.121,262.371 321.588,261.578 322.800 C 260.218 324.880,256.800 331.592,256.800 332.183 C 256.800 332.735,260.923 332.800,295.777 332.800 L 334.754 332.800 334.877 331.100 C 334.972 329.787,335.205 329.310,335.900 329.005 C 336.533 328.728,336.800 328.269,336.800 327.462 C 336.800 326.706,336.971 326.380,337.302 326.507 C 337.859 326.721,338.578 326.072,338.640 325.300 C 338.662 325.025,338.707 324.393,338.740 323.895 C 338.774 323.378,339.186 322.820,339.700 322.595 C 340.395 322.290,340.628 321.813,340.723 320.500 C 340.832 318.998,340.960 318.800,341.823 318.800 C 342.669 318.800,342.800 318.616,342.800 317.429 C 342.800 316.457,343.080 315.838,343.763 315.301 C 344.292 314.884,344.787 314.144,344.863 313.656 C 344.938 313.168,345.139 312.779,345.308 312.793 C 345.996 312.847,346.652 311.772,346.741 310.442 C 346.853 308.790,346.862 308.776,347.927 308.696 C 348.377 308.662,348.736 308.536,348.725 308.417 C 348.535 306.320,348.883 305.149,349.800 304.800 C 350.350 304.591,350.800 304.126,350.800 303.767 C 350.800 303.409,351.250 302.761,351.800 302.329 C 352.519 301.763,352.800 301.157,352.800 300.171 C 352.800 299.417,352.980 298.778,353.200 298.750 C 353.420 298.723,353.825 298.678,354.100 298.650 C 354.627 298.597,354.670 298.435,354.750 296.200 C 354.793 294.987,354.933 294.800,355.800 294.800 C 356.648 294.800,356.800 294.615,356.800 293.581 C 356.800 292.794,357.155 292.033,357.800 291.435 C 358.390 290.888,358.800 290.066,358.800 289.431 C 358.800 288.838,358.935 288.425,359.100 288.513 C 359.388 288.667,360.800 287.411,360.800 287.000 C 360.800 286.890,360.800 286.363,360.800 285.828 C 360.800 285.124,361.049 284.820,361.700 284.728 C 362.468 284.619,362.618 284.321,362.722 282.700 C 362.832 280.985,362.939 280.800,363.822 280.800 C 364.608 280.800,364.800 280.596,364.800 279.764 C 364.800 279.194,365.174 278.425,365.632 278.054 C 366.090 277.684,366.592 276.755,366.748 275.990 C 366.905 275.226,367.164 274.649,367.324 274.708 C 367.937 274.936,368.650 273.796,368.741 272.442 C 368.852 270.798,368.867 270.775,369.884 270.699 C 370.507 270.652,370.676 270.300,370.749 268.901 C 370.806 267.803,371.127 266.873,371.619 266.381 C 372.604 265.396,372.601 264.964,371.600 264.107 C 371.156 263.727,370.800 262.927,370.800 262.311 C 370.800 261.393,370.627 261.200,369.800 261.200 C 368.928 261.200,368.800 261.024,368.800 259.833 C 368.800 257.972,368.449 257.200,367.603 257.200 C 367.066 257.200,366.825 256.758,366.621 255.400 C 366.379 253.785,366.062 253.401,365.100 253.553 C 364.935 253.579,364.800 253.060,364.800 252.400 C 364.800 251.613,364.598 251.200,364.214 251.200 C 363.439 251.200,362.800 249.947,362.800 248.426 C 362.800 247.392,362.647 247.200,361.822 247.200 C 360.939 247.200,360.832 247.015,360.722 245.300 C 360.618 243.679,360.468 243.381,359.700 243.272 C 359.049 243.180,358.800 242.876,358.800 242.172 C 358.800 240.779,358.753 240.678,357.727 239.871 C 357.217 239.470,356.800 238.826,356.800 238.441 C 356.800 238.055,356.360 237.326,355.822 236.820 C 355.284 236.315,354.789 235.338,354.722 234.651 C 354.630 233.704,354.381 233.369,353.700 233.272 C 352.873 233.155,352.470 231.728,352.750 229.907 C 352.775 229.746,352.346 229.501,351.798 229.364 C 351.067 229.180,350.800 228.846,350.800 228.114 C 350.800 227.525,350.390 226.792,349.800 226.329 C 349.219 225.872,348.800 225.131,348.800 224.561 C 348.800 223.890,348.492 223.463,347.825 223.210 C 347.067 222.921,346.823 222.501,346.725 221.320 C 346.633 220.197,346.365 219.697,345.700 219.405 C 344.893 219.051,344.692 218.413,344.814 216.586 C 344.839 216.215,343.677 215.200,343.229 215.200 C 342.993 215.200,342.800 214.848,342.800 214.418 C 342.800 213.988,342.350 213.186,341.800 212.636 C 341.171 212.008,340.800 211.184,340.800 210.418 C 340.800 209.393,340.645 209.200,339.822 209.200 C 338.939 209.200,338.832 209.015,338.722 207.300 C 338.618 205.679,338.468 205.381,337.700 205.272 C 337.066 205.182,336.785 204.857,336.750 204.172 C 336.723 203.637,336.655 203.020,336.600 202.800 C 336.545 202.580,336.478 202.232,336.450 202.027 C 336.423 201.822,336.051 201.543,335.625 201.408 C 335.199 201.273,334.794 200.766,334.725 200.281 C 334.647 199.729,334.272 199.353,333.721 199.275 C 332.979 199.169,332.823 198.856,332.721 197.275 C 332.618 195.679,332.466 195.381,331.700 195.272 C 330.971 195.169,330.800 194.889,330.800 193.805 C 330.800 191.947,330.443 191.200,329.557 191.200 C 328.876 191.200,328.531 190.135,328.750 188.708 C 328.775 188.547,328.346 188.121,327.797 187.762 C 327.196 187.367,326.800 186.730,326.800 186.154 C 326.800 185.403,326.587 185.200,325.800 185.200 C 324.867 185.200,324.800 185.067,324.800 183.200 C 324.800 181.333,324.733 181.200,323.800 181.200 C 322.860 181.200,322.470 180.000,322.739 177.940 C 322.758 177.797,322.329 177.569,321.787 177.432 C 321.043 177.246,320.800 176.919,320.800 176.105 C 320.800 175.461,320.412 174.692,319.839 174.200 C 319.311 173.746,318.816 172.930,318.739 172.387 C 318.645 171.722,318.306 171.358,317.700 171.272 C 316.906 171.159,316.800 170.913,316.800 169.172 C 316.800 167.348,316.727 167.200,315.823 167.200 C 314.960 167.200,314.832 167.002,314.723 165.500 C 314.628 164.187,314.395 163.710,313.700 163.405 C 313.148 163.163,312.800 162.660,312.800 162.105 C 312.800 161.584,312.556 161.200,312.224 161.200 C 311.477 161.200,311.100 160.560,310.818 158.814 C 310.646 157.754,310.370 157.369,309.716 157.275 C 309.002 157.173,308.821 156.846,308.722 155.475 C 308.630 154.209,308.388 153.707,307.733 153.420 C 307.113 153.147,306.793 152.550,306.609 151.320 C 306.377 149.777,306.057 149.401,305.100 149.553 C 304.935 149.579,304.800 149.060,304.800 148.400 C 304.800 147.467,304.622 147.200,304.000 147.200 C 303.356 147.200,303.200 146.933,303.200 145.833 C 303.200 143.972,302.849 143.200,302.003 143.200 C 301.463 143.200,301.224 142.753,301.014 141.354 C 300.819 140.055,300.522 139.452,300.012 139.319 C 299.605 139.213,299.184 138.622,299.055 137.977 C 298.929 137.343,298.474 136.474,298.045 136.045 C 297.615 135.615,297.205 134.845,297.132 134.332 C 297.048 133.736,296.689 133.356,296.138 133.277 C 295.613 133.202,295.179 132.772,295.030 132.177 L 294.785 131.200 257.659 131.200 C 237.240 131.200,220.413 131.320,220.267 131.467 " stroke="none" fill="#1c9c74" fill-rule="evenodd"></path><path id="path3" d="M65.200 134.172 C 65.200 134.876,64.951 135.180,64.300 135.272 C 63.532 135.381,63.382 135.679,63.278 137.300 C 63.168 139.015,63.061 139.200,62.178 139.200 C 61.271 139.200,61.200 139.345,61.200 141.200 C 61.200 143.067,61.133 143.200,60.200 143.200 C 59.400 143.200,59.200 143.400,59.200 144.200 C 59.200 144.750,59.033 145.200,58.829 145.200 C 58.022 145.200,57.200 146.527,57.200 147.829 C 57.200 149.025,57.072 149.200,56.200 149.200 C 55.267 149.200,55.200 149.333,55.200 151.200 C 55.200 153.067,55.133 153.200,54.200 153.200 C 53.267 153.200,53.200 153.333,53.200 155.200 C 53.200 157.067,53.133 157.200,52.200 157.200 C 51.428 157.200,51.200 157.406,51.200 158.105 C 51.200 158.660,50.852 159.163,50.300 159.405 C 49.605 159.710,49.372 160.187,49.277 161.500 C 49.168 163.002,49.040 163.200,48.177 163.200 C 47.271 163.200,47.200 163.346,47.200 165.200 C 47.200 167.067,47.133 167.200,46.200 167.200 C 45.328 167.200,45.200 167.375,45.200 168.571 C 45.200 169.557,44.919 170.163,44.200 170.729 C 43.650 171.161,43.200 171.882,43.200 172.330 C 43.200 172.870,42.897 173.187,42.300 173.272 C 41.532 173.381,41.382 173.679,41.278 175.300 C 41.168 177.015,41.061 177.200,40.178 177.200 C 39.271 177.200,39.200 177.345,39.200 179.200 C 39.200 181.067,39.133 181.200,38.200 181.200 C 37.446 181.200,37.200 181.410,37.200 182.054 C 37.200 182.524,36.750 183.325,36.200 183.835 C 35.555 184.433,35.200 185.194,35.200 185.981 C 35.200 187.015,35.048 187.200,34.200 187.200 C 33.267 187.200,33.200 187.333,33.200 189.200 C 33.200 191.067,33.133 191.200,32.200 191.200 C 31.267 191.200,31.200 191.333,31.200 193.200 C 31.200 195.067,31.133 195.200,30.200 195.200 C 29.428 195.200,29.200 195.406,29.200 196.105 C 29.200 196.660,28.852 197.163,28.300 197.405 C 27.524 197.746,27.400 198.102,27.400 200.000 C 27.400 201.898,27.524 202.254,28.300 202.595 C 28.852 202.837,29.200 203.340,29.200 203.895 C 29.200 204.594,29.428 204.800,30.200 204.800 C 31.133 204.800,31.200 204.933,31.200 206.800 C 31.200 208.667,31.267 208.800,32.200 208.800 C 33.133 208.800,33.200 208.933,33.200 210.800 C 33.200 212.654,33.271 212.800,34.177 212.800 C 35.040 212.800,35.168 212.998,35.277 214.500 C 35.372 215.813,35.605 216.290,36.300 216.595 C 36.852 216.837,37.200 217.340,37.200 217.895 C 37.200 218.594,37.428 218.800,38.200 218.800 C 39.133 218.800,39.200 218.933,39.200 220.800 C 39.200 222.655,39.271 222.800,40.178 222.800 C 41.061 222.800,41.168 222.985,41.278 224.700 C 41.382 226.321,41.532 226.619,42.300 226.728 C 42.957 226.821,43.200 227.124,43.200 227.846 C 43.200 228.391,43.650 229.286,44.200 229.836 C 44.750 230.386,45.200 231.278,45.200 231.818 C 45.200 232.599,45.405 232.800,46.200 232.800 C 47.133 232.800,47.200 232.933,47.200 234.800 C 47.200 236.655,47.271 236.800,48.178 236.800 C 49.061 236.800,49.168 236.985,49.278 238.700 C 49.382 240.321,49.532 240.619,50.300 240.728 C 50.897 240.813,51.200 241.130,51.200 241.670 C 51.200 242.118,51.650 242.839,52.200 243.271 C 52.919 243.837,53.200 244.443,53.200 245.429 C 53.200 246.625,53.328 246.800,54.200 246.800 C 55.133 246.800,55.200 246.933,55.200 248.800 C 55.200 250.654,55.271 250.800,56.177 250.800 C 57.040 250.800,57.168 250.998,57.277 252.500 C 57.372 253.813,57.605 254.290,58.300 254.595 C 58.852 254.837,59.200 255.340,59.200 255.895 C 59.200 256.594,59.428 256.800,60.200 256.800 C 61.133 256.800,61.200 256.933,61.200 258.800 C 61.200 260.667,61.267 260.800,62.200 260.800 C 63.133 260.800,63.200 260.933,63.200 262.800 C 63.200 264.667,63.267 264.800,64.200 264.800 C 65.000 264.800,65.200 265.000,65.200 265.800 L 65.200 266.800 103.200 266.800 L 141.200 266.800 141.200 267.642 C 141.200 268.106,141.650 268.839,142.200 269.271 C 142.919 269.837,143.200 270.443,143.200 271.429 C 143.200 272.625,143.328 272.800,144.200 272.800 C 145.133 272.800,145.200 272.933,145.200 274.800 C 145.200 276.654,145.271 276.800,146.177 276.800 C 147.040 276.800,147.168 276.998,147.277 278.500 C 147.372 279.813,147.605 280.290,148.300 280.595 C 148.852 280.837,149.200 281.340,149.200 281.895 C 149.200 282.594,149.428 282.800,150.200 282.800 C 151.133 282.800,151.200 282.933,151.200 284.800 C 151.200 286.667,151.267 286.800,152.200 286.800 C 153.073 286.800,153.200 286.975,153.200 288.176 C 153.200 288.933,153.383 289.666,153.607 289.804 C 153.830 289.942,153.907 290.227,153.777 290.438 C 153.647 290.648,153.689 290.794,153.870 290.763 C 154.856 290.591,155.200 290.916,155.200 292.019 C 155.200 292.806,155.555 293.567,156.200 294.165 C 156.750 294.675,157.200 295.476,157.200 295.946 C 157.200 296.590,157.446 296.800,158.200 296.800 C 159.133 296.800,159.200 296.933,159.200 298.800 C 159.200 300.655,159.271 300.800,160.178 300.800 C 161.061 300.800,161.168 300.985,161.278 302.700 C 161.380 304.293,161.539 304.620,162.260 304.723 C 162.886 304.812,163.190 305.221,163.380 306.232 C 163.523 306.994,163.991 307.837,164.420 308.105 C 164.887 308.397,165.200 309.035,165.200 309.696 C 165.200 310.607,165.375 310.800,166.200 310.800 C 167.133 310.800,167.200 310.933,167.200 312.800 C 167.200 314.654,167.271 314.800,168.177 314.800 C 169.040 314.800,169.168 314.998,169.277 316.500 C 169.372 317.813,169.605 318.290,170.300 318.595 C 170.795 318.812,171.200 319.326,171.200 319.737 C 171.200 320.148,171.650 320.839,172.200 321.271 C 172.919 321.837,173.200 322.443,173.200 323.429 C 173.200 324.625,173.328 324.800,174.200 324.800 C 175.133 324.800,175.200 324.933,175.200 326.800 C 175.200 328.667,175.267 328.800,176.200 328.800 C 177.091 328.800,177.200 328.965,177.200 330.320 C 177.200 332.965,174.555 332.800,216.880 332.800 L 255.600 332.800 255.600 331.789 C 255.600 330.847,254.401 328.320,252.000 324.199 C 251.450 323.255,250.500 321.609,249.889 320.541 C 247.363 316.130,246.667 314.924,245.767 313.400 C 245.247 312.520,244.448 311.080,243.990 310.200 C 243.532 309.320,242.632 307.790,241.990 306.800 C 241.348 305.810,240.437 304.233,239.965 303.295 C 239.493 302.357,238.953 301.495,238.765 301.378 C 238.577 301.262,238.057 300.409,237.610 299.483 C 237.163 298.558,236.361 297.080,235.827 296.200 C 234.847 294.587,234.211 293.458,232.217 289.800 C 231.618 288.700,230.908 287.530,230.641 287.200 C 230.374 286.870,229.930 286.150,229.654 285.600 C 229.112 284.516,228.098 282.728,225.000 277.389 C 221.720 271.736,220.892 270.283,219.971 268.555 C 218.277 265.378,221.220 265.600,180.838 265.600 C 150.301 265.600,144.800 265.515,144.800 265.043 C 144.800 264.736,145.026 264.399,145.301 264.293 C 145.577 264.187,146.046 263.428,146.343 262.607 C 146.640 261.785,147.315 260.477,147.842 259.701 C 148.369 258.924,148.800 258.052,148.800 257.764 C 148.800 257.476,149.051 257.096,149.357 256.920 C 149.663 256.744,150.211 255.970,150.575 255.200 C 150.938 254.430,151.757 252.900,152.394 251.800 C 153.031 250.700,153.878 249.170,154.276 248.400 C 154.674 247.630,155.165 246.881,155.367 246.735 C 155.728 246.475,156.896 244.364,158.211 241.600 C 158.577 240.830,159.199 239.840,159.592 239.400 C 159.986 238.960,160.437 238.177,160.594 237.661 C 160.751 237.144,161.227 236.373,161.652 235.948 C 162.077 235.523,162.532 234.641,162.662 233.988 C 162.793 233.334,163.068 232.800,163.272 232.800 C 163.477 232.800,163.993 232.014,164.418 231.053 C 164.843 230.092,165.463 229.080,165.795 228.804 C 166.128 228.528,166.400 227.971,166.400 227.567 C 166.400 227.162,166.741 226.509,167.158 226.116 C 167.575 225.722,168.215 224.770,168.580 224.000 C 169.254 222.577,170.295 220.733,172.791 216.537 C 173.556 215.252,174.420 213.750,174.713 213.200 C 175.005 212.650,175.773 211.300,176.420 210.200 C 177.067 209.100,177.966 207.435,178.417 206.500 C 178.868 205.565,179.402 204.800,179.603 204.800 C 179.804 204.800,180.179 204.095,180.437 203.233 C 180.733 202.245,181.220 201.564,181.754 201.391 C 184.094 200.631,176.668 200.444,143.280 200.423 C 103.716 200.398,105.331 200.495,104.268 198.074 C 104.009 197.483,102.993 195.650,102.010 194.000 C 101.027 192.350,99.948 190.510,99.612 189.912 C 98.705 188.299,95.148 182.114,94.000 180.154 C 93.450 179.215,92.100 176.875,91.000 174.954 C 89.900 173.033,88.509 170.637,87.909 169.631 C 87.309 168.624,86.445 167.080,85.989 166.200 C 85.533 165.320,84.604 163.700,83.925 162.600 C 82.503 160.298,82.116 159.638,78.995 154.200 C 77.732 152.000,76.329 149.570,75.877 148.800 C 75.425 148.030,74.766 146.860,74.413 146.200 C 74.059 145.540,73.433 144.492,73.021 143.872 C 72.083 142.461,71.073 140.670,70.041 138.589 C 69.601 137.703,68.782 136.547,68.221 136.019 C 67.659 135.492,67.200 134.642,67.200 134.130 C 67.200 133.405,66.980 133.200,66.200 133.200 C 65.408 133.200,65.200 133.402,65.200 134.172 M324.800 184.600 C 324.800 184.930,325.092 185.200,325.449 185.200 C 325.980 185.200,326.008 185.091,325.600 184.600 C 325.326 184.270,325.034 184.000,324.951 184.000 C 324.868 184.000,324.800 184.270,324.800 184.600 M370.800 267.449 C 370.800 267.980,370.909 268.008,371.400 267.600 C 371.730 267.326,372.000 267.034,372.000 266.951 C 372.000 266.868,371.730 266.800,371.400 266.800 C 371.070 266.800,370.800 267.092,370.800 267.449 " stroke="none" fill="#048bfb" fill-rule="evenodd"></path><path id="path4" d="M67.775 133.956 C 68.201 134.435,69.011 135.048,69.575 135.318 C 70.139 135.587,70.658 136.211,70.728 136.704 C 70.798 137.197,71.107 137.600,71.414 137.600 C 72.113 137.600,72.800 138.844,72.800 140.109 C 72.800 140.748,73.137 141.225,73.800 141.527 C 74.593 141.889,74.800 142.276,74.800 143.401 C 74.800 144.546,74.993 144.893,75.800 145.200 C 76.475 145.457,76.800 145.886,76.800 146.520 C 76.800 147.037,77.250 147.883,77.800 148.400 C 78.350 148.917,78.800 149.737,78.800 150.224 C 78.800 150.726,79.232 151.391,79.800 151.763 C 80.526 152.239,80.800 152.773,80.800 153.714 C 80.800 154.675,81.033 155.113,81.700 155.405 C 82.319 155.677,82.639 156.208,82.726 157.108 C 82.808 157.961,83.190 158.637,83.826 159.054 C 84.362 159.405,84.800 160.023,84.800 160.428 C 84.800 160.833,85.250 161.614,85.800 162.164 C 86.350 162.714,86.800 163.627,86.800 164.194 C 86.800 164.811,87.081 165.329,87.500 165.483 C 88.481 165.845,88.787 166.406,88.794 167.857 C 88.799 168.861,89.001 169.164,89.800 169.364 C 90.597 169.564,90.800 169.867,90.800 170.850 C 90.800 171.691,91.119 172.336,91.800 172.871 C 92.376 173.325,92.800 174.070,92.800 174.629 C 92.800 175.163,92.967 175.600,93.171 175.600 C 93.915 175.600,94.800 176.884,94.800 177.964 C 94.800 178.757,95.084 179.201,95.800 179.527 C 96.621 179.901,96.800 180.266,96.800 181.564 C 96.800 182.898,96.940 183.164,97.700 183.272 C 98.360 183.366,98.636 183.712,98.733 184.569 C 98.806 185.211,99.301 186.079,99.833 186.498 C 100.462 186.992,100.800 187.667,100.800 188.429 C 100.800 189.191,101.005 189.600,101.386 189.600 C 102.110 189.600,102.800 190.825,102.800 192.109 C 102.800 192.748,103.137 193.225,103.800 193.527 C 104.593 193.889,104.800 194.276,104.800 195.401 C 104.800 196.546,104.993 196.893,105.800 197.200 C 106.410 197.432,106.800 197.895,106.800 198.386 C 106.800 199.187,107.027 199.193,143.300 199.333 C 163.375 199.411,180.520 199.584,181.400 199.718 C 182.319 199.857,182.503 199.841,181.832 199.680 C 181.011 199.483,180.386 198.894,179.732 197.700 C 179.219 196.765,178.355 195.235,177.811 194.300 C 177.268 193.365,176.363 191.790,175.800 190.800 C 175.237 189.810,174.332 188.235,173.789 187.300 C 173.245 186.365,172.355 184.835,171.811 183.900 C 171.268 182.965,170.363 181.390,169.800 180.400 C 168.061 177.339,166.752 175.067,165.767 173.400 C 165.247 172.520,164.452 171.042,164.000 170.117 C 163.547 169.191,163.007 168.328,162.800 168.200 C 162.593 168.072,162.057 167.209,161.610 166.283 C 161.163 165.358,160.393 163.934,159.899 163.120 C 159.404 162.305,158.140 160.145,157.089 158.320 C 156.038 156.494,154.110 153.200,152.805 151.000 C 151.501 148.800,150.157 146.460,149.820 145.800 C 149.483 145.140,148.669 143.700,148.012 142.600 C 147.355 141.500,146.455 139.935,146.012 139.123 C 144.630 136.587,143.171 134.611,142.472 134.328 C 142.102 134.179,125.363 134.044,105.274 134.028 C 78.654 134.008,68.510 133.876,67.874 133.542 C 67.002 133.085,67.002 133.086,67.775 133.956 M269.600 223.889 C 269.600 224.121,269.971 224.736,270.424 225.256 L 271.247 226.200 270.545 225.000 C 269.620 223.421,269.600 223.397,269.600 223.889 M275.612 234.278 C 275.605 234.540,276.005 235.179,276.500 235.697 C 276.995 236.215,277.200 236.360,276.956 236.020 C 276.712 235.679,276.312 235.040,276.068 234.600 C 275.824 234.160,275.619 234.015,275.612 234.278 " stroke="none" fill="#4cac95" fill-rule="evenodd"></path></g></svg>